<?xml version="1.0" encoding="UTF-8" standalone="no"?>
<!DOCTYPE svg PUBLIC "-//W3C//DTD SVG 20010904//EN" "http://www.w3.org/TR/2001/REC-SVG-20010904/DTD/svg10.dtd">
<svg version="1.0" xmlns="http://www.w3.org/2000/svg" width="200.000000pt" height="123.000000pt" viewBox="0 0 200.000000 123.000000" preserveAspectRatio="xMidYMid meet">
<metadata>
Created by potrace 1.10, written by Peter Selinger 2001-2011
</metadata>
<g transform="translate(0.000000,123.000000) scale(0.050000,-0.050000)" fill="#000000" stroke="none">
<path d="M452 2209 c43 -40 59 -62 34 -50 -57 28 -112 27 -95 -1 9 -15 -1 -14 -30 2 -30 15 -79 18 -148 8 -57 -9 -110 -14 -118 -12 -25 7 -17 -32 10 -43 14 -5 1 -11 -28 -11 -63 -2 -77 -32 -77 -164 0 -99 45 -141 73 -68 7 19 37 30 79 30 47 0 68 9 68 30 0 17 10 30 21 30 12 0 17 8 11 17 -6 10 14 14 44 11 l54 -7 -55 23 c-68 29 -73 62 -6 36 51 -19 92 7 46 28 -14 7 2 7 35 0 73 -16 83 -16 165 3 48 10 65 7 65 -12 0 -15 18 -46 41 -70 49 -52 65 -124 37 -167 -18 -27 -19 -26 -12 9 10 48 -66 94 -109 67 -21 -14 -20 -17 6 -18 19 0 36 -21 42 -50 11 -59 -16 -68 -31 -10 -6 22 -23 40 -39 40 -39 0 -36 -60 3 -62 21 -1 23 -5 7 -11 -14 -6 -19 -21 -11 -34 8 -13 16 -50 18 -83 5 -107 7 -115 38 -103 16 7 30 5 31 -3 0 -8 22 -30 48 -49 47 -34 47 -34 33 20 -8 30 -34 64 -58 75 -24 11 -44 25 -44 33 0 22 118 56 130 37 22 -36 90 7 168 106 24 31 23 39 -10 66 -21 17 -27 25 -14 19 18 -9 24 12 21 77 -3 61 -11 84 -26 72 -25 -22 -109 -18 -109 4 0 9 11 16 23 16 13 0 3 22 -22 49 -54 57 -6 61 60 5 50 -43 61 -43 45 1 -14 38 22 12 128 -92 43 -42 44 -45 7 -33 -68 21 -46 -10 29 -41 39 -16 70 -39 70 -51 0 -13 15 -17 34 -9 19 7 28 7 20 -1 -8 -8 -1 -35 15 -60 26 -39 26 -46 -1 -56 -55 -21 -74 -14 -48 18 20 24 19 30 -6 30 -18 0 -44 -17 -59 -39 -15 -21 -51 -44 -81 -52 -30 -7 -54 -21 -54 -29 0 -9 18 -11 41 -6 22 6 39 3 38 -6 -6 -32 25 -108 44 -108 10 0 12 24 4 53 -12 48 -9 52 35 41 47 -12 47 -11 8 20 -28 22 -30 28 -7 20 17 -6 42 -1 54 11 16 16 25 13 34 -10 8 -21 29 -29 61 -23 48 9 48 8 21 -57 -15 -36 -39 -63 -52 -60 -13 4 -19 -3 -12 -13 6 -11 3 -25 -9 -32 -11 -7 -20 -4 -20 6 0 26 -70 43 -100 24 -19 -12 -19 -17 0 -23 20 -7 20 -18 -2 -52 -21 -34 -22 -49 -3 -68 16 -16 17 -35 3 -60 -15 -28 -12 -37 11 -37 27 0 66 48 68 86 2 35 110 143 118 119 6 -17 21 -10 46 20 42 50 51 35 18 -28 -16 -29 -15 -47 2 -68 13 -16 17 -29 9 -29 -8 0 -4 -14 10 -30 19 -23 32 -25 53 -8 21 18 27 16 27 -9 0 -18 -26 -45 -58 -62 -78 -40 -162 -144 -162 -200 0 -34 -15 -50 -52 -60 -35 -9 -48 -22 -40 -43 6 -16 -1 -34 -17 -40 -40 -16 -56 -68 -29 -100 12 -15 17 -41 11 -58 -6 -16 -2 -80 11 -141 16 -83 16 -117 -1 -134 -17 -17 -23 -13 -24 16 0 38 -1 38 -29 1 -16 -21 -24 -46 -18 -56 6 -10 1 -31 -13 -47 -13 -15 -18 -43 -11 -62 11 -26 7 -28 -16 -9 -22 18 -31 18 -40 -2 -7 -14 -9 -6 -4 19 9 47 -47 34 -80 -18 -9 -14 -5 -18 9 -9 13 8 23 2 23 -16 0 -16 -10 -36 -22 -43 -12 -7 -39 -42 -61 -76 l-40 -63 16 80 c9 44 16 118 16 163 0 46 9 82 21 80 12 -2 20 61 21 162 1 90 -6 153 -15 140 -10 -16 -16 -7 -18 25 l-2 50 -14 -50 c-14 -48 -15 -48 -28 17 -23 112 -16 273 16 363 35 100 35 100 12 100 -10 0 -23 -31 -31 -69 -15 -81 -57 -120 -51 -48 7 83 1 88 -32 27 -33 -64 -54 -670 -23 -670 8 0 15 -24 15 -54 0 -103 43 -15 54 112 11 114 -12 166 -41 97 -6 -14 -8 11 -3 55 4 44 8 129 9 188 1 124 14 131 23 12 4 -44 15 -86 24 -92 10 -7 18 -48 18 -90 1 -58 5 -68 16 -38 12 32 18 34 26 10 20 -57 28 -140 14 -140 -8 0 -27 -56 -42 -125 -34 -156 -33 -151 -35 -176 -2 -12 -13 -15 -26 -7 -15 9 -18 5 -8 -10 8 -14 2 -40 -15 -58 -16 -19 -35 -53 -42 -77 -8 -24 -26 -48 -42 -54 -19 -8 -25 0 -17 23 9 30 8 30 -13 -1 -12 -19 -16 -46 -8 -58 8 -14 5 -18 -8 -10 -11 8 -27 4 -35 -8 -9 -15 26 -20 111 -15 l125 6 36 90 37 90 1 -79 1 -80 60 66 c48 52 60 58 62 29 1 -28 4 -29 13 -6 6 17 24 39 39 50 15 11 35 47 45 80 17 58 18 57 19 -26 1 -48 -7 -106 -19 -130 -20 -41 -19 -41 8 -8 16 20 40 94 53 164 31 163 80 218 71 78 -4 -51 0 -82 8 -69 9 13 23 23 33 22 10 -1 24 27 30 63 8 41 15 51 18 26 2 -22 13 -2 23 45 13 57 30 86 53 87 123 9 161 34 185 121 12 45 17 93 12 107 -6 14 11 46 37 70 44 41 62 145 24 134 -9 -2 -26 13 -38 33 -17 31 -24 33 -40 10 -13 -19 -15 -14 -6 18 7 26 4 45 -8 45 -11 0 -16 12 -10 28 8 20 28 23 79 12 80 -18 83 -14 29 55 -25 31 -40 81 -40 129 0 66 -6 77 -35 68 -54 -17 -99 18 -56 42 30 17 28 23 -18 54 -29 18 -47 43 -40 53 7 11 0 18 -14 14 -14 -3 -29 13 -32 35 -5 36 88 114 141 119 8 0 24 15 34 31 17 26 19 25 20 -4 0 -19 29 -50 65 -68 148 -74 165 -143 50 -205 -61 -34 -86 -60 -88 -95 -3 -56 5 -59 46 -18 46 47 67 36 67 -35 1 -49 5 -58 20 -35 11 17 20 51 20 77 0 26 18 62 40 80 36 29 38 40 17 97 -19 50 -19 75 0 117 36 80 -36 150 -168 160 -64 5 -249 84 -249 107 0 7 -63 44 -140 82 -76 39 -139 80 -140 92 0 12 -22 48 -50 80 -27 32 -50 65 -50 73 0 8 -13 15 -30 15 -16 0 -30 11 -30 25 -1 18 -5 18 -18 -2 -11 -18 -22 -20 -30 -6 -7 11 -43 16 -80 10 -36 -6 -86 -1 -109 12 -38 20 -43 17 -43 -20 l0 -42 -64 46 c-35 24 -57 34 -48 21 20 -33 -26 -29 -88 6 -86 49 -90 33 -8 -41z m282 -181 c-25 -26 -94 36 -94 84 l0 51 52 -62 c29 -35 48 -68 42 -73z m526 -198 c13 -16 30 -26 38 -22 7 5 32 -2 56 -15 56 -30 33 -72 -46 -84 -62 -9 -138 26 -94 44 17 7 18 24 5 58 -20 54 3 65 41 19z m71 -697 c18 7 24 -6 20 -41 -3 -29 1 -52 8 -52 7 0 29 -36 49 -80 35 -80 62 -100 76 -58 9 28 116 42 116 15 0 -11 -19 -17 -43 -13 -29 4 -47 -8 -59 -39 -10 -27 -9 -45 3 -45 10 0 20 11 21 25 1 19 4 18 12 -1 11 -30 -48 -83 -94 -83 -24 0 -25 3 -3 17 15 9 24 33 20 53 -7 34 -9 34 -40 3 -28 -28 -35 -29 -44 -3 -7 16 -35 29 -62 29 -28 0 -51 10 -51 21 0 12 10 15 23 7 13 -8 18 -3 12 14 -5 15 -18 26 -29 24 -22 -4 -33 140 -15 197 9 28 19 35 33 21 12 -12 33 -16 47 -11z m-86 -339 c4 9 6 5 3 -8 -11 -44 73 -124 143 -138 38 -7 75 -22 82 -33 8 -12 3 -15 -10 -7 -14 9 -23 0 -23 -22 -1 -30 -4 -31 -20 -6 -11 17 -20 20 -20 7 0 -45 -126 -73 -155 -34 -14 19 -25 26 -26 16 0 -17 -79 189 -79 207 0 5 16 2 35 -5 28 -11 30 -8 10 12 -40 40 -29 67 13 29 21 -19 42 -27 47 -18z"/>
<path d="M428 1980 c-64 -68 -76 -79 -124 -119 -26 -21 -44 -45 -40 -54 3 -10 -25 -19 -64 -21 -139 -8 -200 -38 -200 -96 0 -38 8 -44 45 -35 39 10 42 8 19 -20 -23 -28 -21 -30 15 -21 50 13 53 37 6 56 -30 12 -28 17 15 33 36 14 54 12 70 -9 11 -15 31 -24 45 -19 14 5 25 -6 25 -25 0 -19 9 -27 23 -18 16 10 19 -1 10 -36 -7 -28 -6 -56 1 -64 8 -7 16 -51 20 -98 10 -137 19 -202 35 -239 9 -19 10 -58 3 -85 -7 -29 -4 -50 8 -50 11 0 20 -28 20 -61 0 -34 -8 -56 -18 -50 -10 6 -10 -23 1 -70 13 -62 11 -88 -11 -110 -37 -36 -61 117 -45 276 9 77 7 92 -7 55 -14 -37 -17 -12 -14 98 2 96 -4 151 -19 156 -14 5 -23 -21 -24 -68 0 -42 -6 -152 -12 -246 -7 -93 -13 -260 -15 -370 -2 -136 -7 -175 -16 -120 l-13 80 -15 -60 c-37 -142 -56 -190 -73 -179 -11 6 -13 -26 -6 -77 7 -56 4 -94 -11 -103 -12 -7 -22 -34 -22 -58 0 -25 -8 -54 -19 -64 -11 -12 -7 -34 12 -59 31 -40 31 -40 19 2 -8 26 -1 52 18 68 16 14 30 43 30 66 0 22 15 58 34 79 27 30 29 41 9 53 -21 13 -19 19 5 29 20 7 32 36 32 72 0 66 32 83 46 26 5 -19 6 -15 4 10 -2 25 3 45 13 45 20 0 20 16 -3 -221 -10 -105 -24 -207 -32 -227 -11 -29 -4 -34 43 -29 31 4 60 20 65 35 7 20 -3 25 -33 17 -30 -8 -43 -2 -43 19 0 17 12 26 26 20 19 -7 25 8 21 53 -5 57 -4 58 10 13 16 -49 16 -49 26 14 5 35 2 59 -6 54 -9 -6 -11 4 -5 21 7 17 21 31 31 31 11 0 14 19 6 43 -8 27 -6 37 7 29 41 -25 11 308 -30 342 -20 16 -26 24 -13 18 38 -19 75 47 79 145 3 51 11 119 19 151 10 40 8 54 -7 44 -12 -7 -9 12 7 42 35 67 41 174 7 126 -16 -22 -19 -6 -12 65 6 62 28 119 63 165 29 38 44 70 32 70 -12 0 -21 15 -21 33 0 19 -14 49 -31 68 -87 96 -40 319 66 319 16 0 24 11 20 25 -5 14 -25 22 -44 19 -21 -4 -30 2 -22 15 21 34 1 24 -41 -19z m-80 -392 c7 -17 11 -55 10 -85 l-1 -53 -25 55 c-13 31 -30 50 -37 43 -7 -6 -7 7 -1 30 13 50 37 54 54 10z"/>
<path d="M2534 1838 c-40 -6 -84 -22 -100 -34 -15 -13 -85 -32 -156 -43 -70 -11 -173 -33 -228 -48 l-100 -28 1 -154 c1 -124 8 -159 35 -174 21 -11 34 -43 34 -81 0 -61 1 -61 40 -26 22 20 40 48 40 63 0 61 125 2 217 -103 56 -64 62 -81 50 -154 -9 -60 -7 -78 10 -68 13 8 23 3 23 -12 -1 -61 -48 -83 -185 -85 -59 -1 -73 -7 -63 -31 7 -16 11 -68 10 -115 -7 -175 102 -237 207 -118 101 114 231 139 231 44 0 -33 15 -50 50 -59 36 -9 50 -26 50 -60 0 -26 14 -58 30 -72 25 -20 30 -19 30 8 0 18 14 38 30 45 20 8 31 42 32 104 2 51 7 78 12 59 7 -29 17 -30 58 -11 29 13 45 33 39 50 -6 15 -3 22 7 16 10 -6 29 3 42 19 14 17 18 30 10 30 -9 0 9 19 38 42 29 23 66 37 81 31 31 -12 131 57 131 90 0 11 -24 1 -53 -22 -72 -56 -128 -57 -77 -1 33 36 41 79 48 243 2 59 120 152 144 114 9 -14 18 -12 26 6 7 15 8 0 2 -33 l-10 -60 29 50 c26 45 30 46 31 10 0 -33 4 -35 20 -10 17 27 19 27 20 0 1 -25 4 -25 18 -2 29 45 66 7 40 -41 -19 -37 -17 -40 25 -29 29 7 23 1 -16 -17 -62 -29 -187 -168 -187 -208 0 -12 -20 -40 -45 -64 -29 -27 -34 -40 -15 -35 16 3 45 31 65 61 23 36 52 55 85 55 33 0 50 11 50 32 0 20 11 28 29 21 17 -6 38 3 48 20 12 22 22 25 31 9 8 -12 0 -28 -17 -35 -52 -19 -97 -120 -62 -134 19 -7 25 -1 18 16 -5 16 8 38 30 49 50 27 69 28 53 2 -8 -12 5 -13 34 -2 25 9 49 33 52 54 5 35 4 36 -16 3 -12 -19 -31 -35 -42 -35 -31 0 -12 126 20 136 20 7 24 -1 16 -23 -9 -24 -2 -33 28 -33 22 0 35 -8 29 -18 -6 -10 8 -13 31 -7 33 8 41 3 35 -27 -4 -22 -25 -39 -50 -40 -56 -3 -87 -24 -87 -60 0 -23 14 -22 77 11 l77 39 26 -47 c13 -26 19 -57 11 -69 -8 -13 2 -23 23 -24 21 0 26 -5 11 -11 -39 -16 -29 -47 10 -34 30 11 30 8 -3 -17 -21 -17 -32 -40 -24 -53 9 -14 2 -23 -17 -23 -21 0 -30 -18 -29 -55 0 -30 6 -44 11 -30 6 14 19 20 29 14 10 -6 24 3 30 20 21 53 48 34 40 -29 -7 -62 17 -101 33 -55 5 14 10 -16 11 -65 3 -98 -33 -192 -38 -100 -2 42 -4 43 -12 10 -6 -22 -19 -51 -31 -65 -14 -17 -13 -25 4 -25 16 0 14 -10 -6 -30 -20 -20 -25 -47 -15 -83 21 -81 55 -78 71 4 16 85 24 83 40 -7 7 -39 3 -64 -10 -64 -12 0 -16 -9 -9 -20 7 -11 2 -20 -11 -20 -13 0 -18 -14 -11 -31 6 -17 3 -26 -7 -20 -10 7 -24 3 -30 -8 -8 -12 16 -19 58 -17 76 3 104 95 47 152 -17 17 -17 24 -2 24 41 0 32 361 -9 393 -28 22 -29 25 -3 16 72 -25 50 235 -31 355 -175 261 -320 454 -414 550 -75 77 -99 116 -91 145 8 34 1 41 -44 41 -33 0 -74 20 -103 51 -88 93 -482 150 -745 107z m-47 -98 c-32 -63 -42 -69 -82 -44 -18 12 -14 25 15 50 22 18 40 27 40 20 0 -8 11 -3 24 10 36 36 36 30 3 -36z m406 16 c24 -19 25 -65 1 -89 -7 -7 -2 -27 11 -43 21 -25 20 -28 -5 -19 -142 57 -182 62 -216 27 -32 -32 -32 -33 1 -21 37 14 50 -20 16 -41 -12 -7 -13 -30 -1 -60 14 -38 12 -46 -10 -37 -15 5 -23 23 -17 39 7 17 -1 28 -21 28 -18 0 -32 13 -32 28 0 16 -6 45 -13 65 -7 21 -6 31 2 23 21 -19 71 33 71 73 0 37 42 41 76 7 18 -18 24 -18 24 -1 0 14 14 18 35 11 31 -12 32 -9 7 21 -30 37 19 29 71 -11z m270 -68 c-4 -21 -17 -56 -29 -78 -12 -22 -20 -47 -18 -56 3 -9 -9 -30 -26 -46 -16 -17 -31 -23 -33 -14 -27 175 -11 238 58 235 42 -3 53 -12 48 -41z m-592 -103 c-20 -20 -131 -23 -131 -3 0 35 129 75 137 43 3 -15 1 -34 -6 -40z m764 40 c-19 -22 -27 -58 -21 -97 8 -54 1 -68 -59 -105 -76 -47 -115 -54 -115 -22 0 12 7 17 16 12 9 -6 29 -1 45 10 22 15 16 18 -25 12 -77 -13 -90 39 -15 55 33 7 54 22 48 32 -6 10 7 18 30 18 22 0 40 7 39 15 -7 44 4 86 21 76 10 -6 24 -3 31 9 7 11 18 20 24 20 7 0 -2 -16 -19 -35z m-1075 -26 c0 -11 -17 -19 -38 -19 -48 0 -184 -58 -138 -59 18 -1 56 8 85 19 67 25 66 -7 -1 -37 -41 -19 -50 -34 -40 -71 8 -32 -1 -58 -28 -82 -39 -35 -40 -35 -40 7 0 65 -3 71 -41 98 -57 40 -23 161 35 128 20 -11 56 -5 103 18 72 35 103 34 103 -2z m63 -4 c31 -59 81 -96 113 -85 14 5 21 2 16 -7 -25 -41 109 -109 138 -70 15 20 34 30 43 21 9 -9 6 -22 -6 -30 -33 -22 -46 -124 -16 -124 15 0 31 -20 36 -45 5 -25 8 -13 6 25 -4 88 73 115 108 36 18 -42 19 -41 11 14 -5 33 3 87 18 120 15 33 30 78 34 100 9 56 61 50 78 -10 8 -27 15 -40 16 -27 1 13 19 19 42 13 43 -12 52 -36 20 -56 -25 -15 -26 -50 -2 -50 9 0 22 19 28 43 11 38 15 39 43 11 17 -17 25 -45 19 -63 -7 -17 -5 -47 3 -66 23 -51 30 -130 15 -165 -7 -16 -14 -34 -16 -40 -30 -94 -81 -178 -113 -187 -22 -5 -45 -29 -51 -51 -6 -23 -18 -37 -27 -32 -9 6 -22 -16 -29 -48 -18 -82 -65 -120 -65 -53 0 28 12 61 28 73 15 13 27 34 27 48 0 14 14 31 30 37 17 7 30 26 30 42 0 29 24 40 67 33 9 -2 13 8 7 22 -5 14 6 43 24 64 30 36 30 37 -13 14 -25 -13 -45 -32 -45 -43 0 -10 -16 -19 -36 -19 -22 0 -50 -28 -70 -71 -21 -43 -43 -66 -57 -57 -16 9 -16 3 -3 -21 15 -27 8 -47 -32 -88 -45 -45 -47 -53 -17 -59 40 -8 43 -21 15 -64 -15 -24 -19 -24 -20 -3 0 23 -5 23 -32 2 -29 -25 -66 -2 -68 42 0 6 -20 33 -44 59 -46 49 -54 177 -12 203 14 8 14 16 0 25 -11 7 -30 -13 -41 -43 -20 -54 -20 -54 -21 20 -1 41 0 78 3 82 3 4 -5 19 -18 35 -12 15 -29 59 -37 97 -10 45 -51 102 -122 170 -104 99 -106 104 -76 148 18 25 27 63 22 84 -14 53 19 49 49 -6z m159 -770 c-39 -78 -167 -166 -235 -163 -21 0 -26 6 -12 11 14 6 25 21 25 34 0 31 91 72 136 60 25 -7 45 11 69 62 19 39 39 71 45 71 6 0 -6 -34 -28 -75z"/>
<path d="M2890 1395 c-24 -77 -27 -95 -12 -86 8 5 31 -10 52 -34 36 -42 37 -42 51 -4 16 43 5 75 -20 60 -9 -6 -16 1 -16 14 4 99 -29 130 -55 50z"/>
<path d="M873 1620 c-7 -35 -21 -57 -33 -50 -11 7 -20 -2 -20 -20 0 -18 -8 -27 -18 -21 -24 14 -18 -155 6 -172 10 -7 23 -66 28 -130 5 -64 23 -138 40 -163 23 -35 24 -52 7 -69 -27 -27 -31 -62 -5 -46 11 6 13 -16 6 -54 -7 -36 -12 -94 -12 -129 1 -35 -6 -59 -16 -54 -25 16 -19 -41 8 -68 50 -50 61 -22 47 116 -10 104 -7 139 10 135 13 -3 34 30 46 72 13 43 31 69 40 60 10 -10 11 5 3 33 -14 47 -26 60 -83 96 -13 8 -29 50 -37 94 -10 59 -7 72 8 50 13 -18 22 -20 22 -7 0 38 -23 87 -37 79 -23 -14 -23 154 0 181 12 15 15 27 7 27 -8 0 -5 12 6 26 12 14 14 37 6 51 -11 18 -20 6 -29 -37z"/>
<path d="M122 1509 c-70 -80 -76 -93 -30 -75 28 10 29 6 8 -33 -17 -32 -17 -42 -1 -32 27 17 10 -69 -30 -154 -16 -35 -18 -51 -4 -42 13 8 17 3 10 -15 -45 -112 -45 -111 0 -72 22 20 51 79 64 130 13 51 35 100 47 109 23 14 -2 42 -54 61 -10 3 1 48 24 100 50 113 47 115 -34 23z"/>
<path d="M1469 1529 c34 -26 29 -38 -14 -31 -8 1 -15 -7 -15 -18 0 -11 18 -20 40 -20 22 0 40 8 40 18 0 10 5 31 10 46 8 18 -7 28 -45 31 -52 4 -53 3 -16 -26z"/>
<path d="M620 1480 c0 -11 -10 -18 -22 -15 -13 3 -28 -8 -33 -23 -7 -18 -2 -22 16 -12 19 12 22 5 13 -30 -7 -26 -4 -38 6 -28 22 23 48 128 32 128 -7 0 -12 -9 -12 -20z"/>
<path d="M1225 1378 c-50 -19 -62 -57 -15 -50 34 5 82 47 69 59 -5 5 -29 1 -54 -9z"/>
<path d="M456 1223 c-12 -164 -1 -244 26 -200 10 15 18 58 18 95 0 38 15 85 33 105 20 22 24 37 10 37 -13 0 -23 25 -23 55 -1 39 -6 47 -18 28 -14 -23 -19 -23 -26 0 -5 15 -14 -39 -20 -120z"/>
<path d="M562 1218 c-27 -77 -28 -98 -4 -98 19 0 51 138 36 153 -5 5 -19 -20 -32 -55z"/>
<path d="M543 1010 c-23 -38 -32 -70 -21 -70 11 0 14 -10 6 -23 -8 -13 -16 -110 -17 -215 -2 -106 3 -165 9 -132 7 33 23 58 36 55 13 -3 24 13 24 35 0 22 8 40 19 40 10 0 17 17 16 39 -2 21 -12 33 -22 27 -11 -7 -15 53 -9 151 11 188 13 184 -41 93z"/>
<path d="M804 990 c0 -73 4 -90 18 -65 12 21 12 59 1 99 -17 63 -18 61 -19 -34z"/>
<path d="M42 973 c-23 -37 -41 -85 -40 -105 1 -28 4 -30 12 -8 5 17 27 64 48 105 47 93 35 98 -20 8z"/>
<path d="M3563 868 c-13 -28 -18 -60 -11 -71 6 -11 -1 -35 -17 -53 -54 -64 -60 -94 -8 -40 29 30 53 73 53 95 0 30 13 41 49 41 27 0 54 9 61 20 7 12 23 15 36 7 18 -9 18 -6 0 13 -20 22 -30 21 -57 -1 -29 -24 -37 -23 -58 6 -23 31 -27 30 -48 -17z"/>
<path d="M3405 815 c-36 -21 -65 -47 -65 -57 0 -10 -13 -18 -30 -18 -36 0 -42 -110 -8 -131 15 -10 18 0 9 29 -8 24 -7 42 2 40 39 -6 67 3 67 23 0 12 -11 15 -25 6 -17 -10 -16 -3 3 20 15 19 32 29 38 24 6 -6 22 -1 37 12 15 12 27 15 27 7 0 -8 14 -4 30 10 73 61 5 89 -85 35z"/>
<path d="M3006 674 c-7 -11 -3 -14 9 -7 11 7 25 -5 31 -27 11 -41 54 -56 54 -19 0 12 9 16 20 9 11 -7 20 -3 20 9 0 11 -13 21 -30 21 -16 0 -30 8 -30 17 0 23 -59 21 -74 -3z"/>
<path d="M3697 674 c-4 -28 -9 -81 -16 -164 -5 -59 -5 -60 -21 -10 -9 28 -17 36 -18 18 -2 -32 -123 -178 -147 -178 -6 0 -7 20 -1 45 8 36 5 39 -12 15 -12 -16 -16 -46 -10 -65 6 -19 -1 -40 -16 -45 -22 -9 -45 -110 -24 -110 4 0 22 29 40 65 38 74 67 98 102 86 14 -5 39 11 57 35 32 43 32 43 25 -29 -6 -63 -2 -72 31 -66 45 9 70 29 36 29 -13 0 -23 14 -23 32 0 19 11 28 28 22 32 -13 19 67 -14 89 -11 7 -1 18 22 26 22 7 46 27 53 45 21 54 -10 58 -49 6 l-38 -50 6 50 c3 28 16 70 29 94 29 55 29 59 -7 73 -16 7 -32 1 -33 -13z"/>
<path d="M84 613 c-28 -77 -32 -173 -6 -173 14 0 45 219 33 234 -2 3 -14 -25 -27 -61z"/>
<path d="M3162 615 l3 -65 13 60 c18 82 46 14 29 -71 -10 -50 -7 -58 20 -47 37 14 45 98 12 119 -14 8 -14 21 2 41 20 23 14 28 -29 28 -46 0 -52 -8 -50 -65z"/>
<path d="M2890 640 c-7 -12 -20 -16 -30 -10 -9 5 -12 -6 -7 -26 5 -20 -4 -49 -22 -63 -34 -28 -44 -111 -11 -91 12 7 20 -12 20 -45 0 -88 21 -92 73 -16 53 78 71 191 19 120 -42 -58 -63 -19 -39 72 21 79 20 97 -3 59z"/>
<path d="M3371 577 c7 -23 -3 -38 -32 -47 -32 -11 -37 -20 -20 -37 17 -17 27 -15 41 7 10 16 23 24 29 18 6 -6 -30 -55 -79 -109 -50 -54 -90 -113 -90 -132 0 -19 -15 -49 -32 -67 -18 -17 -26 -38 -18 -46 9 -8 20 -2 25 12 5 14 25 41 44 60 35 34 70 102 65 127 -2 7 10 18 27 24 16 7 29 2 29 -9 0 -11 9 -15 20 -8 41 25 18 -34 -30 -78 -58 -54 -61 -65 -20 -65 17 0 25 4 20 10 -6 5 7 29 28 52 56 61 72 129 33 143 -24 10 -27 19 -10 39 12 15 35 22 50 16 16 -6 29 -1 29 12 0 13 -11 17 -23 9 -16 -10 -19 -3 -10 22 12 30 9 32 -17 10 -25 -20 -30 -19 -30 8 0 17 9 32 20 32 11 0 20 8 20 19 0 10 -18 17 -40 16 -28 -3 -37 -14 -29 -38z"/>
<path d="M3020 530 c0 -16 -9 -30 -20 -30 -11 0 -20 -15 -20 -33 0 -31 3 -31 37 0 77 70 71 -72 -7 -191 -60 -90 -74 -95 -68 -21 9 116 1 140 -33 96 -32 -43 -38 -146 -10 -190 12 -19 8 -53 -9 -95 l-28 -66 179 0 179 0 0 65 c1 44 6 56 18 38 12 -19 21 -21 31 -5 7 12 3 22 -10 22 -17 0 -16 10 3 35 24 31 22 31 -16 -1 -23 -21 -48 -59 -55 -85 -6 -28 -26 -49 -45 -49 -27 0 -29 5 -10 24 50 50 29 76 -41 49 -36 -14 -78 -25 -95 -24 -16 1 -38 -7 -47 -18 -10 -12 -12 -6 -5 16 7 20 13 47 13 60 1 12 9 5 18 -17 15 -36 20 -33 48 32 36 84 92 139 95 95 3 -32 32 75 36 130 2 33 -2 34 -31 11 -29 -25 -31 -22 -17 22 36 117 36 113 12 80 -22 -31 -29 -16 -22 49 3 35 0 36 -32 10 -22 -18 -30 -19 -21 -4 9 14 6 25 -6 25 -11 0 -21 -13 -21 -30z"/>
<path d="M620 465 c-3 -25 -7 -56 -8 -70 -1 -14 -13 -37 -27 -51 -14 -15 -25 -39 -25 -53 0 -27 -66 -192 -104 -261 -20 -35 -19 -37 10 -13 17 14 47 68 66 120 19 51 41 101 50 110 8 10 10 32 3 49 -8 20 -4 26 11 16 29 -17 50 62 39 141 -8 48 -10 50 -15 12z"/>
<path d="M161 208 c-49 -144 -43 -179 18 -106 31 38 56 238 29 238 -1 0 -23 -59 -47 -132z"/>
<path d="M405 232 c-47 -96 -84 -265 -47 -212 12 17 22 45 22 63 0 19 10 37 22 41 29 10 81 161 61 181 -8 8 -34 -25 -58 -73z"/>
<path d="M3619 182 c15 -29 13 -41 -11 -50 -17 -7 -28 -23 -23 -37 5 -14 -1 -34 -13 -45 -13 -11 -19 -18 -14 -15 5 2 21 -6 36 -18 36 -30 40 -23 56 85 11 75 8 95 -19 105 -26 10 -28 5 -12 -25z"/>
<path d="M3380 170 c18 -21 13 -29 -24 -35 -44 -8 -44 -9 -6 -25 22 -9 47 -27 56 -39 9 -11 11 -2 4 22 -8 30 -2 46 19 50 21 5 15 14 -21 31 -42 20 -47 19 -28 -4z"/>
<path d="M3442 61 c-15 -9 -42 -12 -61 -7 -18 5 -46 -6 -61 -24 -24 -29 -18 -32 58 -27 46 3 93 16 104 29 25 30 -4 51 -40 29z"/>
</g>
</svg>